<?xml version="1.0" encoding="UTF-8"?>
<svg version="1.1" xmlns="http://www.w3.org/2000/svg" width="300" height="300">
<path d="M0 0 C21.45 0 42.9 0 65 0 C65 97.02 65 194.04 65 294 C63.68 294 62.36 294 61 294 C61 293.34 61 292.68 61 292 C41.53 292 22.06 292 2 292 C2 291.34 2 290.68 2 290 C-18.79 290 -39.58 290 -61 290 C-61 289.01 -61 288.02 -61 287 C-62.21901001 287.00785522 -62.21901001 287.00785522 -63.46264648 287.01586914 C-67.12092322 287.03656994 -70.77918767 287.04963803 -74.4375 287.0625 C-75.71689453 287.07087891 -76.99628906 287.07925781 -78.31445312 287.08789062 C-80.13686523 287.09272461 -80.13686523 287.09272461 -81.99609375 287.09765625 C-83.12200928 287.10289307 -84.2479248 287.10812988 -85.40795898 287.11352539 C-88 287 -88 287 -89 286 C-91.34987262 285.76472227 -93.70556039 285.58613583 -96.0625 285.4375 C-97.35285156 285.35371094 -98.64320312 285.26992188 -99.97265625 285.18359375 C-100.97167969 285.12300781 -101.97070312 285.06242187 -103 285 C-103 284.34 -103 283.68 -103 283 C-107.62 283 -112.24 283 -117 283 C-117 282.01 -117 281.02 -117 280 C-119.97 280 -122.94 280 -126 280 C-126 279.34 -126 278.68 -126 278 C-127.65 278 -129.3 278 -131 278 C-131 277.34 -131 276.68 -131 276 C-132.32 276 -133.64 276 -135 276 C-135 275.01 -135 274.02 -135 273 C-137.31 273 -139.62 273 -142 273 C-142 272.34 -142 271.68 -142 271 C-142.99 271 -143.98 271 -145 271 C-145 270.34 -145 269.68 -145 269 C-146.98 269 -148.96 269 -151 269 C-151.495 267.515 -151.495 267.515 -152 266 C-152.66 266 -153.32 266 -154 266 C-154 265.34 -154 264.68 -154 264 C-155.65 264 -157.3 264 -159 264 C-159 263.34 -159 262.68 -159 262 C-160.32 262 -161.64 262 -163 262 C-163 261.01 -163 260.02 -163 259 C-163.99 259 -164.98 259 -166 259 C-166 258.34 -166 257.68 -166 257 C-167.32 257 -168.64 257 -170 257 C-170 256.34 -170 255.68 -170 255 C-171.65 255 -173.3 255 -175 255 C-175 254.01 -175 253.02 -175 252 C-175.66 252 -176.32 252 -177 252 C-177 251.34 -177 250.68 -177 250 C-177.99 250 -178.98 250 -180 250 C-180 249.34 -180 248.68 -180 248 C-181.32 248 -182.64 248 -184 248 C-184 247.01 -184 246.02 -184 245 C-184.99 245 -185.98 245 -187 245 C-187 244.34 -187 243.68 -187 243 C-187.66 243 -188.32 243 -189 243 C-189 242.34 -189 241.68 -189 241 C-189.66 241 -190.32 241 -191 241 C-191 240.01 -191 239.02 -191 238 C-191.99 238 -192.98 238 -194 238 C-194 237.34 -194 236.68 -194 236 C-194.66 236 -195.32 236 -196 236 C-196 234.35 -196 232.7 -196 231 C-196.66 231 -197.32 231 -198 231 C-198 230.34 -198 229.68 -198 229 C-198.99 229 -199.98 229 -201 229 C-201 228.34 -201 227.68 -201 227 C-201.66 227 -202.32 227 -203 227 C-203 226.01 -203 225.02 -203 224 C-203.66 224 -204.32 224 -205 224 C-205 223.34 -205 222.68 -205 222 C-205.99 221.67 -206.98 221.34 -208 221 C-208 219.68 -208 218.36 -208 217 C-208.66 217 -209.32 217 -210 217 C-210 216.34 -210 215.68 -210 215 C-210.66 215 -211.32 215 -212 215 C-212 213.35 -212 211.7 -212 210 C-212.99 210 -213.98 210 -215 210 C-215 208.68 -215 207.36 -215 206 C-215.66 206 -216.32 206 -217 206 C-217 204.35 -217 202.7 -217 201 C-217.66 201 -218.32 201 -219 201 C-219 199.35 -219 197.7 -219 196 C-219.99 196 -220.98 196 -222 196 C-222 188.41 -222 180.82 -222 173 C-221.01 173 -220.02 173 -219 173 C-219 172.34 -219 171.68 -219 171 C-218.34 171 -217.68 171 -217 171 C-217 170.01 -217 169.02 -217 168 C-216.34 168 -215.68 168 -215 168 C-215 167.34 -215 166.68 -215 166 C-214.01 166 -213.02 166 -212 166 C-212 165.34 -212 164.68 -212 164 C-211.34 164 -210.68 164 -210 164 C-210 163.01 -210 162.02 -210 161 C-209.34 161 -208.68 161 -208 161 C-208 160.34 -208 159.68 -208 159 C-206.35 159 -204.7 159 -203 159 C-203 158.34 -203 157.68 -203 157 C-202.34 157 -201.68 157 -201 157 C-201 156.01 -201 155.02 -201 154 C-200.01 154 -199.02 154 -198 154 C-198 153.34 -198 152.68 -198 152 C-196.68 152 -195.36 152 -194 152 C-194 151.34 -194 150.68 -194 150 C-193.01 150 -192.02 150 -191 150 C-191 149.01 -191 148.02 -191 147 C-190.34 147 -189.68 147 -189 147 C-189 146.34 -189 145.68 -189 145 C-187.35 145 -185.7 145 -184 145 C-184 144.34 -184 143.68 -184 143 C-183.34 143 -182.68 143 -182 143 C-182 142.01 -182 141.02 -182 140 C-179 138 -179 138 -175 138 C-175 137.34 -175 136.68 -175 136 C-174.34 136 -173.68 136 -173 136 C-173 135.01 -173 134.02 -173 133 C-172.01 133 -171.02 133 -170 133 C-170 132.34 -170 131.68 -170 131 C-168.68 131 -167.36 131 -166 131 C-166 130.34 -166 129.68 -166 129 C-165.01 129 -164.02 129 -163 129 C-163 128.01 -163 127.02 -163 126 C-182.47 126 -201.94 126 -222 126 C-222 115.44 -222 104.88 -222 94 C-221.01 94 -220.02 94 -219 94 C-219 93.01 -219 92.02 -219 91 C-216.69 91 -214.38 91 -212 91 C-212 90.34 -212 89.68 -212 89 C-210.68 89 -209.36 89 -208 89 C-208 88.34 -208 87.68 -208 87 C-205.69 87 -203.38 87 -201 87 C-201 86.01 -201 85.02 -201 84 C-199.35 84 -197.7 84 -196 84 C-196 83.34 -196 82.68 -196 82 C-193.69 82 -191.38 82 -189 82 C-189 81.34 -189 80.68 -189 80 C-187.35 80 -185.7 80 -184 80 C-184 79.01 -184 78.02 -184 77 C-182.68 77 -181.36 77 -180 77 C-180 76.34 -180 75.68 -180 75 C-178.35 75 -176.7 75 -175 75 C-175 74.34 -175 73.68 -175 73 C-172.69 73 -170.38 73 -168 73 C-168 72.01 -168 71.02 -168 70 C-166.35 70 -164.7 70 -163 70 C-163 69.34 -163 68.68 -163 68 C-159.17010894 66.19769832 -156.21878192 65.80377759 -152 66 C-152 65.01 -152 64.02 -152 63 C-150.35 63 -148.7 63 -147 63 C-147 62.34 -147 61.68 -147 61 C-144.69 61 -142.38 61 -140 61 C-140 60.34 -140 59.68 -140 59 C-138.35 59 -136.7 59 -135 59 C-135 58.01 -135 57.02 -135 56 C-132.69 56 -130.38 56 -128 56 C-128 55.34 -128 54.68 -128 54 C-126.68 54 -125.36 54 -124 54 C-124 53.34 -124 52.68 -124 52 C-121.69 52 -119.38 52 -117 52 C-117 51.01 -117 50.02 -117 49 C-115.35 49 -113.7 49 -112 49 C-112 48.34 -112 47.68 -112 47 C-110.35 47 -108.7 47 -107 47 C-107 46.34 -107 45.68 -107 45 C-104.69 45 -102.38 45 -100 45 C-100 44.01 -100 43.02 -100 42 C-98.68 42 -97.36 42 -96 42 C-96 41.34 -96 40.68 -96 40 C-93.69 40 -91.38 40 -89 40 C-89 39.34 -89 38.68 -89 38 C-87.35 38 -85.7 38 -84 38 C-84 37.01 -84 36.02 -84 35 C-82.35 35 -80.7 35 -79 35 C-79 34.34 -79 33.68 -79 33 C-76.69 33 -74.38 33 -72 33 C-72 32.34 -72 31.68 -72 31 C-70.68 31 -69.36 31 -68 31 C-68 30.01 -68 29.02 -68 28 C-66.35 28 -64.7 28 -63 28 C-63 27.34 -63 26.68 -63 26 C-60.69 26 -58.38 26 -56 26 C-56 25.34 -56 24.68 -56 24 C-54.35 24 -52.7 24 -51 24 C-51 23.01 -51 22.02 -51 21 C-48.69 21 -46.38 21 -44 21 C-44 20.34 -44 19.68 -44 19 C-42.68 19 -41.36 19 -40 19 C-40 18.34 -40 17.68 -40 17 C-38.35 17 -36.7 17 -35 17 C-35 16.01 -35 15.02 -35 14 C-32.69 14 -30.38 14 -28 14 C-28 13.34 -28 12.68 -28 12 C-26.35 12 -24.7 12 -23 12 C-23 11.34 -23 10.68 -23 10 C-20.69 10 -18.38 10 -16 10 C-16 9.01 -16 8.02 -16 7 C-14.68 7 -13.36 7 -12 7 C-12 6.34 -12 5.68 -12 5 C-9.69 5 -7.38 5 -5 5 C-5 4.34 -5 3.68 -5 3 C-3.35 3 -1.7 3 0 3 C0 2.01 0 1.02 0 0 Z " fill="#FEFDFD" transform="translate(222,3)"/>
<path d="M0 0 C2.31 0 4.62 0 7 0 C6.8929123 26.84182109 6.78017854 53.68361328 6.66066074 80.52538204 C6.60530347 92.98753341 6.55181743 105.44968764 6.50268555 117.91186523 C6.45987432 128.76963579 6.41360418 139.62738504 6.36312145 150.48512274 C6.33649577 156.23804501 6.31164217 161.990963 6.29092598 167.74390984 C6.27139696 173.15203047 6.24726461 178.56011048 6.21950912 183.96819496 C6.21011882 185.95927572 6.20245073 187.95036541 6.19658089 189.94145966 C6.18835318 192.64741444 6.17408622 195.35326972 6.15821838 198.05918884 C6.15724028 198.85781135 6.15626217 199.65643386 6.15525442 200.47925705 C6.11412121 205.88587879 6.11412121 205.88587879 5 207 C3.51173398 207.09787778 2.01883994 207.1263178 0.52735901 207.12698364 C-0.43875305 207.12980347 -1.40486511 207.13262329 -2.4002533 207.13552856 C-3.46885086 207.13350433 -4.53744843 207.1314801 -5.63842773 207.12939453 C-6.75702179 207.13114685 -7.87561584 207.13289917 -9.02810669 207.13470459 C-12.7466179 207.13912614 -16.46508201 207.13618385 -20.18359375 207.1328125 C-22.75570179 207.1334855 -25.32780978 207.13445549 -27.8999176 207.13571167 C-33.29957745 207.13718909 -38.69921942 207.13512747 -44.09887695 207.13037109 C-50.34671068 207.12493123 -56.59451177 207.12668914 -62.8423447 207.1321975 C-68.84431882 207.1372779 -74.84627693 207.13674561 -80.84825325 207.13381577 C-83.40602689 207.13314669 -85.96380135 207.13397424 -88.52157402 207.13629532 C-92.09179798 207.13882354 -95.66195852 207.13497867 -99.23217773 207.12939453 C-100.29875107 207.13141876 -101.3653244 207.13344299 -102.46421814 207.13552856 C-103.43315002 207.13270874 -104.40208191 207.12988892 -105.40037537 207.12698364 C-106.66773608 207.1264181 -106.66773608 207.1264181 -107.96070004 207.12584114 C-110 207 -110 207 -112 206 C-114.33189345 205.73044167 -116.66321507 205.55492623 -119.00390625 205.37890625 C-119.66261719 205.25386719 -120.32132813 205.12882813 -121 205 C-121.33 204.34 -121.66 203.68 -122 203 C-125.62535277 202.07493581 -129.24809315 201.3082297 -132.91796875 200.58789062 C-134.96726495 200.15124093 -136.98776957 199.58412888 -139 199 C-139.33 198.01 -139.66 197.02 -140 196 C-141.65 195.67 -143.3 195.34 -145 195 C-145 194.34 -145 193.68 -145 193 C-145.70125 192.9175 -146.4025 192.835 -147.125 192.75 C-149.98458177 192.00402215 -151.84755084 190.91794559 -154.2265625 189.203125 C-156.02002109 187.93988417 -156.02002109 187.93988417 -158.1484375 186.859375 C-163.94561169 183.74503547 -168.4828721 179.91781081 -173.125 175.3125 C-173.70580322 174.74152588 -174.28660645 174.17055176 -174.88500977 173.58227539 C-179 169.38185283 -179 169.38185283 -179 166 C-179.99 166 -180.98 166 -182 166 C-182 164.68 -182 163.36 -182 162 C-182.66 162 -183.32 162 -184 162 C-184.42868476 157.6274154 -184.55135295 155.68919119 -181.75 152.1875 C-179.51166083 150.40700294 -177.63068283 149.07175967 -175 148 C-175 147.01 -175 146.02 -175 145 C-173.02678947 143.6273318 -171.02456848 142.29572383 -169 141 C-168.34 140.01 -167.68 139.02 -167 138 C-165.08984375 137.33984375 -165.08984375 137.33984375 -162.9375 136.9375 C-160.82510028 136.57394299 -160.82510028 136.57394299 -159 136 C-158.67 135.34 -158.34 134.68 -158 134 C-157.34 134 -156.68 134 -156 134 C-155.73445313 133.39800781 -155.46890625 132.79601562 -155.1953125 132.17578125 C-153.95596885 129.91985179 -152.86150568 128.79056389 -150.875 127.1875 C-150.25753906 126.67832031 -149.64007813 126.16914063 -149.00390625 125.64453125 C-148.34261719 125.10183594 -147.68132812 124.55914062 -147 124 C-141.7651385 119.52652724 -141.7651385 119.52652724 -136.8125 114.75 C-135 113 -135 113 -132.375 111.5 C-129.88745149 110.22732675 -129.88745149 110.22732675 -129.0625 108 C-127.47441937 105.01067176 -125.00365621 104.37667576 -122 103 C-121.34 102.34 -120.68 101.68 -120 101 C-118.68 101 -117.36 101 -116 101 C-115.67 96.71 -115.34 92.42 -115 88 C-133.15 88 -151.3 88 -170 88 C-170 87.01 -170 86.02 -170 85 C-169.34 85 -168.68 85 -168 85 C-168 81.04 -168 77.08 -168 73 C-166.02 72.505 -166.02 72.505 -164 72 C-163.67 71.34 -163.34 70.68 -163 70 C-159.65489648 68.37265234 -157.81164166 68 -154 68 C-154 67.34 -154 66.68 -154 66 C-153.0409375 65.814375 -153.0409375 65.814375 -152.0625 65.625 C-151.0415625 65.315625 -151.0415625 65.315625 -150 65 C-149.505 64.01 -149.505 64.01 -149 63 C-145.24079436 61.06669424 -142.19075475 60.80508117 -138 61 C-138 60.34 -138 59.68 -138 59 C-135.525 58.505 -135.525 58.505 -133 58 C-133 57.34 -133 56.68 -133 56 C-131.42032193 55.32471777 -129.83608097 54.66010306 -128.25 54 C-127.36828125 53.62875 -126.4865625 53.2575 -125.578125 52.875 C-123 52 -123 52 -119 52 C-119 51.01 -119 50.02 -119 49 C-117.35 49 -115.7 49 -114 49 C-114 48.34 -114 47.68 -114 47 C-112.95199219 46.70996094 -112.95199219 46.70996094 -111.8828125 46.4140625 C-110.97273438 46.15367188 -110.06265625 45.89328125 -109.125 45.625 C-108.22007813 45.36976562 -107.31515625 45.11453125 -106.3828125 44.8515625 C-103.85430274 44.1395685 -103.85430274 44.1395685 -102 42 C-100.68 42 -99.36 42 -98 42 C-97.67 41.01 -97.34 40.02 -97 39 C-95.68 39 -94.36 39 -93 39 C-93 38.34 -93 37.68 -93 37 C-88.545 36.505 -88.545 36.505 -84 36 C-84 35.01 -84 34.02 -84 33 C-81.69 33 -79.38 33 -77 33 C-77 32.34 -77 31.68 -77 31 C-72.444322 27.87610652 -68.54891125 26 -63 26 C-63 25.01 -63 24.02 -63 23 C-60.69 23 -58.38 23 -56 23 C-56 22.34 -56 21.68 -56 21 C-53.69 21 -51.38 21 -49 21 C-49 20.34 -49 19.68 -49 19 C-48.21753906 18.80664062 -47.43507812 18.61328125 -46.62890625 18.4140625 C-45.61699219 18.15367188 -44.60507813 17.89328125 -43.5625 17.625 C-42.55316406 17.36976562 -41.54382813 17.11453125 -40.50390625 16.8515625 C-37.84429676 16.27426046 -37.84429676 16.27426046 -37 14 C-34.67750658 13.59802999 -32.34114367 13.27313343 -30 13 C-28.33065717 12.68033861 -26.6626783 12.35268934 -25 12 C-25 11.01 -25 10.02 -25 9 C-22.93771534 8.51990738 -20.87516299 8.04096456 -18.8125 7.5625 C-17.66394531 7.29566406 -16.51539063 7.02882813 -15.33203125 6.75390625 C-12.56076125 6.12687799 -9.78908126 5.54100823 -7 5 C-6.67 4.01 -6.34 3.02 -6 2 C-4.02 2 -2.04 2 0 2 C0 1.34 0 0.68 0 0 Z " fill="#A83D27" transform="translate(232,41)"/>
<path d="M0 0 C2.31 0 4.62 0 7 0 C6.8929123 26.84182109 6.78017854 53.68361328 6.66066074 80.52538204 C6.60530347 92.98753341 6.55181743 105.44968764 6.50268555 117.91186523 C6.45987432 128.76963579 6.41360418 139.62738504 6.36312145 150.48512274 C6.33649577 156.23804501 6.31164217 161.990963 6.29092598 167.74390984 C6.27139696 173.15203047 6.24726461 178.56011048 6.21950912 183.96819496 C6.21011882 185.95927572 6.20245073 187.95036541 6.19658089 189.94145966 C6.18835318 192.64741444 6.17408622 195.35326972 6.15821838 198.05918884 C6.15724028 198.85781135 6.15626217 199.65643386 6.15525442 200.47925705 C6.11412121 205.88587879 6.11412121 205.88587879 5 207 C3.51173398 207.09787778 2.01883994 207.1263178 0.52735901 207.12698364 C-0.43875305 207.12980347 -1.40486511 207.13262329 -2.4002533 207.13552856 C-3.46885086 207.13350433 -4.53744843 207.1314801 -5.63842773 207.12939453 C-6.75702179 207.13114685 -7.87561584 207.13289917 -9.02810669 207.13470459 C-12.7466179 207.13912614 -16.46508201 207.13618385 -20.18359375 207.1328125 C-22.75570179 207.1334855 -25.32780978 207.13445549 -27.8999176 207.13571167 C-33.29957745 207.13718909 -38.69921942 207.13512747 -44.09887695 207.13037109 C-50.34671068 207.12493123 -56.59451177 207.12668914 -62.8423447 207.1321975 C-68.84431882 207.1372779 -74.84627693 207.13674561 -80.84825325 207.13381577 C-83.40602689 207.13314669 -85.96380135 207.13397424 -88.52157402 207.13629532 C-92.09179798 207.13882354 -95.66195852 207.13497867 -99.23217773 207.12939453 C-100.29875107 207.13141876 -101.3653244 207.13344299 -102.46421814 207.13552856 C-103.43315002 207.13270874 -104.40208191 207.12988892 -105.40037537 207.12698364 C-106.66773608 207.1264181 -106.66773608 207.1264181 -107.96070004 207.12584114 C-110 207 -110 207 -112 206 C-114.33189345 205.73044167 -116.66321507 205.55492623 -119.00390625 205.37890625 C-119.66261719 205.25386719 -120.32132813 205.12882813 -121 205 C-121.33 204.34 -121.66 203.68 -122 203 C-125.62535277 202.07493581 -129.24809315 201.3082297 -132.91796875 200.58789062 C-134.96726495 200.15124093 -136.98776957 199.58412888 -139 199 C-139.33 198.01 -139.66 197.02 -140 196 C-141.65 195.67 -143.3 195.34 -145 195 C-145 194.34 -145 193.68 -145 193 C-145.70125 192.9175 -146.4025 192.835 -147.125 192.75 C-149.98458177 192.00402215 -151.84755084 190.91794559 -154.2265625 189.203125 C-156.02002109 187.93988417 -156.02002109 187.93988417 -158.1484375 186.859375 C-163.94561169 183.74503547 -168.4828721 179.91781081 -173.125 175.3125 C-173.70580322 174.74152588 -174.28660645 174.17055176 -174.88500977 173.58227539 C-179 169.38185283 -179 169.38185283 -179 166 C-179.99 166 -180.98 166 -182 166 C-182 164.68 -182 163.36 -182 162 C-182.66 162 -183.32 162 -184 162 C-184.42868476 157.6274154 -184.55135295 155.68919119 -181.75 152.1875 C-179.51166083 150.40700294 -177.63068283 149.07175967 -175 148 C-175 147.01 -175 146.02 -175 145 C-173.02678947 143.6273318 -171.02456848 142.29572383 -169 141 C-168.34 140.01 -167.68 139.02 -167 138 C-163.875 137.3125 -163.875 137.3125 -161 137 C-163 139 -163 139 -166 140 C-168.73817056 142.40424732 -170.69210896 144.19178601 -172 147.625 C-173.33334419 150.79169244 -174.93295905 151.57868834 -178 153 C-178.99 153 -179.98 153 -181 153 C-181.144375 153.61875 -181.28875 154.2375 -181.4375 154.875 C-182 157 -182 157 -183 159 C-182.34 159 -181.68 159 -181 159 C-181 160.32 -181 161.64 -181 163 C-180.01 163.33 -179.02 163.66 -178 164 C-178 165.32 -178 166.64 -178 168 C-177.34 168 -176.68 168 -176 168 C-176 168.66 -176 169.32 -176 170 C-175.34 170 -174.68 170 -174 170 C-172.375 171.375 -172.375 171.375 -171 173 C-171 173.66 -171 174.32 -171 175 C-170.34 175 -169.68 175 -169 175 C-169 175.66 -169 176.32 -169 177 C-168.34 177 -167.68 177 -167 177 C-165.375 178.375 -165.375 178.375 -164 180 C-164 180.66 -164 181.32 -164 182 C-162.68 182 -161.36 182 -160 182 C-160 182.66 -160 183.32 -160 184 C-159.236875 183.9175 -158.47375 183.835 -157.6875 183.75 C-156.800625 183.8325 -155.91375 183.915 -155 184 C-153.95374591 185.29735507 -152.95298777 186.63266972 -152 188 C-149.90584196 188.79623822 -149.90584196 188.79623822 -148 189 C-148 189.66 -148 190.32 -148 191 C-146.88625 191.185625 -146.88625 191.185625 -145.75 191.375 C-143.19858515 191.95486701 -141.2732427 192.73708739 -139 194 C-139 194.66 -139 195.32 -139 196 C-137.35 196 -135.7 196 -134 196 C-134 196.66 -134 197.32 -134 198 C-131.69 198 -129.38 198 -127 198 C-126.67 198.66 -126.34 199.32 -126 200 C-122.97065509 200.65772428 -122.97065509 200.65772428 -120 201 C-120 201.66 -120 202.32 -120 203 C-116.04 203 -112.08 203 -108 203 C-108 203.66 -108 204.32 -108 205 C-71.04 205 -34.08 205 4 205 C4 138.01 4 71.02 4 2 C3.01 2 2.02 2 1 2 C1 2.66 1 3.32 1 4 C-1.64 4.33 -4.28 4.66 -7 5 C-6.67 4.01 -6.34 3.02 -6 2 C-4.02 2 -2.04 2 0 2 C0 1.34 0 0.68 0 0 Z " fill="#BD7060" transform="translate(232,41)"/>
<path d="M0 0 C-1.0828125 0.3403125 -1.0828125 0.3403125 -2.1875 0.6875 C-6.4115648 2.65873024 -9.32215753 5.22066351 -11 9.625 C-12.33334419 12.79169244 -13.93295905 13.57868834 -17 15 C-17.99 15 -18.98 15 -20 15 C-20.144375 15.61875 -20.28875 16.2375 -20.4375 16.875 C-21 19 -21 19 -22 21 C-21.34 21 -20.68 21 -20 21 C-20 22.32 -20 23.64 -20 25 C-19.01 25.33 -18.02 25.66 -17 26 C-17 27.32 -17 28.64 -17 30 C-16.34 30 -15.68 30 -15 30 C-15 30.66 -15 31.32 -15 32 C-14.34 32 -13.68 32 -13 32 C-11.375 33.375 -11.375 33.375 -10 35 C-10 35.66 -10 36.32 -10 37 C-9.34 37 -8.68 37 -8 37 C-8 37.66 -8 38.32 -8 39 C-7.34 39 -6.68 39 -6 39 C-4.375 40.375 -4.375 40.375 -3 42 C-3 42.66 -3 43.32 -3 44 C-1.68 44 -0.36 44 1 44 C1 44.66 1 45.32 1 46 C1.763125 45.9175 2.52625 45.835 3.3125 45.75 C4.199375 45.8325 5.08625 45.915 6 46 C7.04625409 47.29735507 8.04701223 48.63266972 9 50 C11.09415804 50.79623822 11.09415804 50.79623822 13 51 C13 51.66 13 52.32 13 53 C14.11375 53.185625 14.11375 53.185625 15.25 53.375 C17.80141485 53.95486701 19.7267573 54.73708739 22 56 C22 56.66 22 57.32 22 58 C23.65 58 25.3 58 27 58 C27 58.66 27 59.32 27 60 C29.31 60 31.62 60 34 60 C34.33 60.66 34.66 61.32 35 62 C38.02934491 62.65772428 38.02934491 62.65772428 41 63 C41 63.66 41 64.32 41 65 C44.96 65 48.92 65 53 65 C53.33 65.66 53.66 66.32 54 67 C90.96 67.33 127.92 67.66 166 68 C166 68.33 166 68.66 166 69 C151.04040767 69.02333923 136.08081675 69.04098422 121.1212101 69.05181217 C114.17552711 69.05697295 107.22985542 69.0640115 100.28417969 69.07543945 C93.58634663 69.08645439 86.88852775 69.09227771 80.19068527 69.09487724 C77.63011871 69.09673075 75.06955282 69.10034994 72.50899124 69.10573006 C68.93387693 69.11294589 65.35881177 69.11399071 61.78369141 69.11352539 C60.71554703 69.11712067 59.64740265 69.12071594 58.54689026 69.12442017 C57.57651321 69.1230455 56.60613617 69.12167084 55.60635376 69.12025452 C54.7601478 69.12117631 53.91394184 69.1220981 53.04209328 69.12304783 C51 69 51 69 49 68 C46.66810655 67.73044167 44.33678493 67.55492623 41.99609375 67.37890625 C41.33738281 67.25386719 40.67867187 67.12882812 40 67 C39.67 66.34 39.34 65.68 39 65 C35.37464723 64.07493581 31.75190685 63.3082297 28.08203125 62.58789062 C26.03273505 62.15124093 24.01223043 61.58412888 22 61 C21.67 60.01 21.34 59.02 21 58 C19.35 57.67 17.7 57.34 16 57 C16 56.34 16 55.68 16 55 C15.29875 54.9175 14.5975 54.835 13.875 54.75 C11.01541823 54.00402215 9.15244916 52.91794559 6.7734375 51.203125 C4.97997891 49.93988417 4.97997891 49.93988417 2.8515625 48.859375 C-2.94561169 45.74503547 -7.4828721 41.91781081 -12.125 37.3125 C-12.70580322 36.74152588 -13.28660645 36.17055176 -13.88500977 35.58227539 C-18 31.38185283 -18 31.38185283 -18 28 C-18.99 28 -19.98 28 -21 28 C-21 26.68 -21 25.36 -21 24 C-21.66 24 -22.32 24 -23 24 C-23.42868476 19.6274154 -23.55135295 17.68919119 -20.75 14.1875 C-18.51166083 12.40700294 -16.63068283 11.07175967 -14 10 C-14 9.01 -14 8.02 -14 7 C-12.02678947 5.6273318 -10.02456848 4.29572383 -8 3 C-7.34 2.01 -6.68 1.02 -6 0 C-3 -1 -3 -1 0 0 Z " fill="#D0948B" transform="translate(71,179)"/>
<path d="M0 0 C0.66 0 1.32 0 2 0 C2 3.96 2 7.92 2 12 C1.34 12 0.68 12 0 12 C0 12.99 0 13.98 0 15 C18.15 15 36.3 15 55 15 C55 24 55 24 54 28 C51.625 29.125 51.625 29.125 49 30 C48.01 30.66 47.02 31.32 46 32 C49 26 49 26 52 25 C52.33 22.36 52.66 19.72 53 17 C35.51 17 18.02 17 0 17 C0 17.66 0 18.32 0 19 C-0.99 19 -1.98 19 -3 19 C-3 17.02 -3 15.04 -3 13 C-3.88042969 13.01160156 -4.76085937 13.02320312 -5.66796875 13.03515625 C-7.41013672 13.04869141 -7.41013672 13.04869141 -9.1875 13.0625 C-10.33605469 13.07410156 -11.48460937 13.08570312 -12.66796875 13.09765625 C-15.59300586 13.01192832 -18.16316291 12.67849023 -21 12 C-21 11.67 -21 11.34 -21 11 C-14.4 11 -7.8 11 -1 11 C-1 7.7 -1 4.4 -1 1 C-0.67 0.67 -0.34 0.34 0 0 Z " fill="#F4EAE9" transform="translate(62,114)"/>
<path d="M0 0 C0.33 0.99 0.66 1.98 1 3 C-2.465 4.485 -2.465 4.485 -6 6 C-6.33 9.3 -6.66 12.6 -7 16 C10.16 16.33 27.32 16.66 45 17 C45 20.3 45 23.6 45 27 C44.67 27 44.34 27 44 27 C44 24.36 44 21.72 44 19 C25.85 19 7.7 19 -11 19 C-11 18.01 -11 17.02 -11 16 C-10.34 16 -9.68 16 -9 16 C-9 12.04 -9 8.08 -9 4 C-7.68 3.67 -6.36 3.34 -5 3 C-4.67 2.34 -4.34 1.68 -4 1 C-1.9375 0.375 -1.9375 0.375 0 0 Z " fill="#CF9086" transform="translate(73,110)"/>
<path d="M0 0 C0.33 0.99 0.66 1.98 1 3 C19.15 3 37.3 3 56 3 C56 12 56 12 55 16 C52.625 17.125 52.625 17.125 50 18 C49.01 18.66 48.02 19.32 47 20 C50 14 50 14 53 13 C53.33 10.03 53.66 7.06 54 4 C36.18 4 18.36 4 0 4 C0 2.68 0 1.36 0 0 Z " fill="#EEDAD8" transform="translate(61,126)"/>
<path d="M0 0 C0.99 0 1.98 0 3 0 C3 0.99 3 1.98 3 3 C2.34 3 1.68 3 1 3 C0.89558594 3.59296875 0.79117187 4.1859375 0.68359375 4.796875 C-0.1005641 7.32410372 -1.05054524 8.4230218 -2.9375 10.25 C-3.46214844 10.77078125 -3.98679687 11.2915625 -4.52734375 11.828125 C-6 13 -6 13 -8 13 C-8.2475 13.598125 -8.495 14.19625 -8.75 14.8125 C-10.16370012 17.28647521 -11.65055383 18.43370255 -14 20 C-14 18.02 -14 16.04 -14 14 C-13.01 14 -12.02 14 -11 14 C-11 13.34 -11 12.68 -11 12 C-10.34 12 -9.68 12 -9 12 C-9 11.01 -9 10.02 -9 9 C-8.34 9 -7.68 9 -7 9 C-7 8.34 -7 7.68 -7 7 C-6.01 7 -5.02 7 -4 7 C-4 6.34 -4 5.68 -4 5 C-3.34 5 -2.68 5 -2 5 C-2 4.01 -2 3.02 -2 2 C-1.34 2 -0.68 2 0 2 C0 1.34 0 0.68 0 0 Z " fill="#F4EFF0" transform="translate(14,162)"/>
<path d="M0 0 C-1.0828125 0.3403125 -1.0828125 0.3403125 -2.1875 0.6875 C-6.4115648 2.65873024 -9.32215753 5.22066351 -11 9.625 C-12.33334419 12.79169244 -13.93295905 13.57868834 -17 15 C-17.99 15 -18.98 15 -20 15 C-20.144375 15.61875 -20.28875 16.2375 -20.4375 16.875 C-21 19 -21 19 -22 21 C-21.34 21 -20.68 21 -20 21 C-19.67 23.31 -19.34 25.62 -19 28 C-19.66 28 -20.32 28 -21 28 C-21 26.68 -21 25.36 -21 24 C-21.66 24 -22.32 24 -23 24 C-23.42868476 19.6274154 -23.55135295 17.68919119 -20.75 14.1875 C-18.51166083 12.40700294 -16.63068283 11.07175967 -14 10 C-14 9.01 -14 8.02 -14 7 C-12.02678947 5.6273318 -10.02456848 4.29572383 -8 3 C-7.34 2.01 -6.68 1.02 -6 0 C-3 -1 -3 -1 0 0 Z " fill="#D08A84" transform="translate(71,179)"/>
<path d="M0 0 C0 0.66 0 1.32 0 2 C-1.98 2 -3.96 2 -6 2 C-6 2.66 -6 3.32 -6 4 C-7.65 4 -9.3 4 -11 4 C-11 4.99 -11 5.98 -11 7 C-12.32 7 -13.64 7 -15 7 C-15 7.66 -15 8.32 -15 9 C-16.65 9 -18.3 9 -20 9 C-20 9.99 -20 10.98 -20 12 C-23.50776784 13.60355101 -26.14354879 14.22036864 -30 14 C-30 14.66 -30 15.32 -30 16 C-32.31 16 -34.62 16 -37 16 C-37 15.67 -37 15.34 -37 15 C-35.02 15 -33.04 15 -31 15 C-31 14.34 -31 13.68 -31 13 C-29.35 12.67 -27.7 12.34 -26 12 C-26 11.34 -26 10.68 -26 10 C-24.42032193 9.32471777 -22.83608097 8.66010306 -21.25 8 C-19.92742187 7.443125 -19.92742187 7.443125 -18.578125 6.875 C-16 6 -16 6 -12 6 C-12 5.01 -12 4.02 -12 3 C-10.35 3 -8.7 3 -7 3 C-7 2.34 -7 1.68 -7 1 C-2.25 0 -2.25 0 0 0 Z " fill="#C88276" transform="translate(125,87)"/>
<path d="M0 0 C0.99 0 1.98 0 3 0 C3 0.66 3 1.32 3 2 C5.475 2.99 5.475 2.99 8 4 C8 4.66 8 5.32 8 6 C8.66 6 9.32 6 10 6 C10 6.99 10 7.98 10 9 C10.99 9 11.98 9 13 9 C13 9.66 13 10.32 13 11 C13.66 11 14.32 11 15 11 C15 12.32 15 13.64 15 15 C14.01 15 13.02 15 12 15 C12 14.01 12 13.02 12 12 C11.01 12 10.02 12 9 12 C9 11.34 9 10.68 9 10 C8.34 10 7.68 10 7 10 C7 9.34 7 8.68 7 8 C6.34 8 5.68 8 5 8 C5 7.01 5 6.02 5 5 C4.01 5 3.02 5 2 5 C2 4.34 2 3.68 2 3 C1.34 3 0.68 3 0 3 C0 2.01 0 1.02 0 0 Z " fill="#F0E5E6" transform="translate(26,236)"/>
<path d="M0 0 C0.66 0.33 1.32 0.66 2 1 C1.67 1.99 1.34 2.98 1 4 C0.34 4 -0.32 4 -1 4 C-1.66 5.65 -2.32 7.3 -3 9 C-4.65 9 -6.3 9 -8 9 C-8.226875 9.556875 -8.45375 10.11375 -8.6875 10.6875 C-10.35896766 13.63246684 -12.55276352 15.68156544 -15 18 C-15.99 17.67 -16.98 17.34 -18 17 C-16.61068357 15.55620057 -15.21323422 14.12022488 -13.8125 12.6875 C-12.64654297 11.48673828 -12.64654297 11.48673828 -11.45703125 10.26171875 C-9.09507677 8.087519 -6.75207875 6.62192957 -4 5 C-2.80767387 2.94996045 -2.80767387 2.94996045 -2 1 C-1.34 0.67 -0.68 0.34 0 0 Z " fill="#C87F74" transform="translate(106,146)"/>
<path d="M0 0 C1.32 0 2.64 0 4 0 C4 0.66 4 1.32 4 2 C6.31 2 8.62 2 11 2 C11.33 2.66 11.66 3.32 12 4 C15.02934491 4.65772428 15.02934491 4.65772428 18 5 C18 5.66 18 6.32 18 7 C21.96 7 25.92 7 30 7 C30.33 7.99 30.66 8.98 31 10 C30.01 9.67 29.02 9.34 28 9 C26.27288071 8.84933047 24.54314494 8.72752057 22.8125 8.625 C18.42609602 8.2604308 14.82123113 7.46758677 10.78125 5.75390625 C8.77753214 4.86838836 8.77753214 4.86838836 5.6875 4 C3.0331592 3.01233831 1.77119007 2.16478786 0 0 Z " fill="#C97D73" transform="translate(94,237)"/>
<path d="M0 0 C0 0.99 0 1.98 0 3 C-0.99 3 -1.98 3 -3 3 C-3 3.66 -3 4.32 -3 5 C-4.65 5 -6.3 5 -8 5 C-8 5.99 -8 6.98 -8 8 C-9.32 8 -10.64 8 -12 8 C-12 8.66 -12 9.32 -12 10 C-13.98 10 -15.96 10 -18 10 C-13.5 6 -13.5 6 -9 6 C-8.67 5.01 -8.34 4.02 -8 3 C-6.68 3 -5.36 3 -4 3 C-4 2.34 -4 1.68 -4 1 C-2.68 0.67 -1.36 0.34 0 0 Z " fill="#CC9185" transform="translate(143,77)"/>
<path d="M0 0 C1.63001953 0.01353516 1.63001953 0.01353516 3.29296875 0.02734375 C4.12441406 0.03894531 4.95585937 0.05054688 5.8125 0.0625 C5.8125 1.0525 5.8125 2.0425 5.8125 3.0625 C1.1925 3.0625 -3.4275 3.0625 -8.1875 3.0625 C-8.5175 2.4025 -8.8475 1.7425 -9.1875 1.0625 C-5.90230525 -0.03256492 -3.45086585 -0.03710608 0 0 Z " fill="#F3E1E3" transform="translate(142.1875,286.9375)"/>
<path d="M0 0 C4.29 0 8.58 0 13 0 C13 0.99 13 1.98 13 3 C8.71 3 4.42 3 0 3 C0 2.01 0 1.02 0 0 Z " fill="#F4DEE1" transform="translate(161,290)"/>
<path d="M0 0 C0 0.99 0 1.98 0 3 C-1.65 3 -3.3 3 -5 3 C-5 3.66 -5 4.32 -5 5 C-7.31 5 -9.62 5 -12 5 C-12 5.66 -12 6.32 -12 7 C-13.65 7 -15.3 7 -17 7 C-15.68 6.67 -14.36 6.34 -13 6 C-13 5.01 -13 4.02 -13 3 C-8.71 2.01 -4.42 1.02 0 0 Z " fill="#BF7564" transform="translate(220,47)"/>
<path d="M0 0 C0.33 0.66 0.66 1.32 1 2 C0.21625 2.2475 -0.5675 2.495 -1.375 2.75 C-4.51591767 4.24567508 -4.56303019 4.95700512 -6 8 C-7.9130667 10.10385772 -9.942884 12.03232383 -12 14 C-12.66 13.67 -13.32 13.34 -14 13 C-13.67 12.34 -13.34 11.68 -13 11 C-12.34 11 -11.68 11 -11 11 C-10.7421875 10.40574219 -10.484375 9.81148437 -10.21875 9.19921875 C-8.90163023 6.822493 -7.58656066 5.53214427 -5.5 3.8125 C-4.8915625 3.30332031 -4.283125 2.79414063 -3.65625 2.26953125 C-2 1 -2 1 0 0 Z " fill="#C7776D" transform="translate(87,164)"/>
<path d="M0 0 C2.31 0 4.62 0 7 0 C6.67 0.99 6.34 1.98 6 3 C2.24092359 4.62323754 -0.92086213 5.23994929 -5 5 C-4.67 4.01 -4.34 3.02 -4 2 C-2.68 2 -1.36 2 0 2 C0 1.34 0 0.68 0 0 Z " fill="#E9D0CA" transform="translate(188,55)"/>
<path d="M0 0 C0.99 0.33 1.98 0.66 3 1 C3 2.32 3 3.64 3 5 C3.66 5 4.32 5 5 5 C5 5.66 5 6.32 5 7 C5.66 7 6.32 7 7 7 C8.625 8.375 8.625 8.375 10 10 C10 10.66 10 11.32 10 12 C10.66 12 11.32 12 12 12 C12 12.66 12 13.32 12 14 C12.66 14.33 13.32 14.66 14 15 C8.55960858 14.15832509 5.37116161 10.0765809 2 6 C0.5 2.5 0.5 2.5 0 0 Z " fill="#CD817A" transform="translate(51,204)"/>
<path d="M0 0 C-0.721875 0.226875 -1.44375 0.45375 -2.1875 0.6875 C-5.57685109 2.26919718 -7.5424688 4.20114502 -10 7 C-10.33 7.99 -10.66 8.98 -11 10 C-11.99 10.66 -12.98 11.32 -14 12 C-14.99 11.67 -15.98 11.34 -17 11 C-16.01 10.67 -15.02 10.34 -14 10 C-14 9.01 -14 8.02 -14 7 C-12.02678947 5.6273318 -10.02456848 4.29572383 -8 3 C-7.34 2.01 -6.68 1.02 -6 0 C-3 -1 -3 -1 0 0 Z " fill="#E6C3BF" transform="translate(71,179)"/>
<path d="M0 0 C1.98 0 3.96 0 6 0 C3.85674962 3.21487558 2.44560634 4.35923508 -1 6 C-3.3125 5.6875 -3.3125 5.6875 -5 5 C-5 4.01 -5 3.02 -5 2 C-3.35 2 -1.7 2 0 2 C0 1.34 0 0.68 0 0 Z " fill="#EEE4E5" transform="translate(159,29)"/>
<path d="M0 0 C1.98 0 3.96 0 6 0 C5.67 0.99 5.34 1.98 5 3 C3.02 3 1.04 3 -1 3 C-1 3.99 -1 4.98 -1 6 C-2.32 5.67 -3.64 5.34 -5 5 C-5 4.01 -5 3.02 -5 2 C-3.35 2 -1.7 2 0 2 C0 1.34 0 0.68 0 0 Z " fill="#EDE5E6" transform="translate(75,64)"/>
<path d="M0 0 C0.99 0 1.98 0 3 0 C3.66 0.66 4.32 1.32 5 2 C7.06874034 2.6425235 7.06874034 2.6425235 9 3 C8.67 3.99 8.34 4.98 8 6 C6.68 6 5.36 6 4 6 C4 5.34 4 4.68 4 4 C2.68 4 1.36 4 0 4 C0 2.68 0 1.36 0 0 Z " fill="#F6EBEC" transform="translate(87,275)"/>
<path d="M0 0 C0.99 0 1.98 0 3 0 C2.66275164 3.11954738 2.3790035 4.6209965 0.125 6.875 C-0.57625 7.24625 -1.2775 7.6175 -2 8 C-2.99 7.67 -3.98 7.34 -5 7 C-5 6.34 -5 5.68 -5 5 C-4.01 5 -3.02 5 -2 5 C-2 4.01 -2 3.02 -2 2 C-1.34 2 -0.68 2 0 2 C0 1.34 0 0.68 0 0 Z " fill="#F0E8E9" transform="translate(33,148)"/>
<path d="M0 0 C0.33 0.99 0.66 1.98 1 3 C-2.465 4.485 -2.465 4.485 -6 6 C-6.33 9.3 -6.66 12.6 -7 16 C-7.33 16 -7.66 16 -8 16 C-8 12.04 -8 8.08 -8 4 C-7.01 3.67 -6.02 3.34 -5 3 C-4.67 2.34 -4.34 1.68 -4 1 C-1.9375 0.375 -1.9375 0.375 0 0 Z " fill="#C7766D" transform="translate(73,110)"/>
<path d="M0 0 C0 0.66 0 1.32 0 2 C1.32 2 2.64 2 4 2 C4 3.32 4 4.64 4 6 C2.68 6 1.36 6 0 6 C0 5.34 0 4.68 0 4 C-1.32 4 -2.64 4 -4 4 C-4 3.01 -4 2.02 -4 1 C-2 0 -2 0 0 0 Z " fill="#F4E9EA" transform="translate(63,261)"/>
<path d="M0 0 C-1.6029449 1.29318256 -3.20740142 2.58449156 -4.8125 3.875 C-5.70582031 4.59429687 -6.59914063 5.31359375 -7.51953125 6.0546875 C-10 8 -10 8 -13 10 C-12.52525937 5.7273343 -10.15665032 3.726198 -7 1 C-2.55172414 -1.27586207 -2.55172414 -1.27586207 0 0 Z " fill="#C97B72" transform="translate(73,179)"/>
<path d="M0 0 C-0.37047118 2.74148672 -0.68587944 4.58593199 -2.375 6.8125 C-4 8 -4 8 -7 8 C-7 7.01 -7 6.02 -7 5 C-6.34 5 -5.68 5 -5 5 C-5 4.01 -5 3.02 -5 2 C-2 0 -2 0 0 0 Z " fill="#EFE6E7" transform="translate(45,141)"/>
<path d="M0 0 C1.65 0 3.3 0 5 0 C4.67 1.32 4.34 2.64 4 4 C1.36 4.66 -1.28 5.32 -4 6 C-4.33 5.01 -4.66 4.02 -5 3 C-3.35 3 -1.7 3 0 3 C0 2.01 0 1.02 0 0 Z " fill="#F0E8E9" transform="translate(87,59)"/>
<path d="M0 0 C-0.66 3.3 -1.32 6.6 -2 10 C-1.34 10 -0.68 10 0 10 C0 10.66 0 11.32 0 12 C-0.99 11.67 -1.98 11.34 -3 11 C-3 10.01 -3 9.02 -3 8 C-3.66 8 -4.32 8 -5 8 C-5.36625971 3.48279689 -5.36625971 3.48279689 -3.625 1.1875 C-2 0 -2 0 0 0 Z " fill="#EFD8D6" transform="translate(50,193)"/>
<path d="M0 0 C1.32 0 2.64 0 4 0 C3.67 1.32 3.34 2.64 3 4 C0.69 4.33 -1.62 4.66 -4 5 C-4 4.01 -4 3.02 -4 2 C-2.68 2 -1.36 2 0 2 C0 1.34 0 0.68 0 0 Z " fill="#EFE7E8" transform="translate(126,43)"/>
<path d="M0 0 C3.875 0.875 3.875 0.875 5 2 C5.04063832 3.66617115 5.042721 5.33388095 5 7 C4.01 7.33 3.02 7.66 2 8 C2 6.35 2 4.7 2 3 C1.34 3 0.68 3 0 3 C0 2.01 0 1.02 0 0 Z " fill="#EDE4E5" transform="translate(3,201)"/>
<path d="M0 0 C0 0.99 0 1.98 0 3 C-0.78375 2.95875 -1.5675 2.9175 -2.375 2.875 C-5.16116119 2.71271266 -5.16116119 2.71271266 -7 5 C-7.99 5 -8.98 5 -10 5 C-10 4.01 -10 3.02 -10 2 C-6.49223216 0.39644899 -3.85645121 -0.22036864 0 0 Z " fill="#EAE2E3" transform="translate(69,69)"/>
<path d="M0 0 C1.32 0 2.64 0 4 0 C4 0.99 4 1.98 4 3 C0.62902617 4.49821059 -1.20442119 5 -5 5 C-4.67 4.01 -4.34 3.02 -4 2 C-2.68 2 -1.36 2 0 2 C0 1.34 0 0.68 0 0 Z " fill="#ECD5D2" transform="translate(109,90)"/>
<path d="M0 0 C1.32 0.33 2.64 0.66 4 1 C1.75 3.5625 1.75 3.5625 -1 6 C-3.3125 5.8125 -3.3125 5.8125 -5 5 C-5 4.34 -5 3.68 -5 3 C-3.35 3 -1.7 3 0 3 C0 2.01 0 1.02 0 0 Z " fill="#EDE1E3" transform="translate(187,17)"/>
<path d="M0 0 C3.01657791 0.14030595 5.23841273 0.29351465 7.51171875 2.40234375 C8.73256066 3.88904235 9.87246522 5.44134898 11 7 C9.02 6.34 7.04 5.68 5 5 C5 4.34 5 3.68 5 3 C3.35 2.67 1.7 2.34 0 2 C0 1.34 0 0.68 0 0 Z " fill="#DCACA7" transform="translate(87,234)"/>
<path d="M0 0 C0.99 0 1.98 0 3 0 C3 1.32 3 2.64 3 4 C0.69 4.66 -1.62 5.32 -4 6 C-4.33 5.01 -4.66 4.02 -5 3 C-3.35 3 -1.7 3 0 3 C0 2.01 0 1.02 0 0 Z " fill="#F0E8E9" transform="translate(138,38)"/>
<path d="M0 0 C0.66 0.33 1.32 0.66 2 1 C1.8125 2.875 1.8125 2.875 1 5 C-1.375 6.125 -1.375 6.125 -4 7 C-4.99 7.66 -5.98 8.32 -7 9 C-4 3 -4 3 -1 2 C-0.67 1.34 -0.34 0.68 0 0 Z " fill="#DCB1A9" transform="translate(115,137)"/>
<path d="M0 0 C0.99 0.33 1.98 0.66 3 1 C-0.95523655 3.75668002 -4.22423661 4.5317879 -9 5 C-9 4.34 -9 3.68 -9 3 C-8.43410156 2.86722656 -7.86820312 2.73445313 -7.28515625 2.59765625 C-6.18494141 2.33275391 -6.18494141 2.33275391 -5.0625 2.0625 C-4.33160156 1.88847656 -3.60070312 1.71445313 -2.84765625 1.53515625 C-1.00030102 1.16112431 -1.00030102 1.16112431 0 0 Z " fill="#E7CBC6" transform="translate(127,83)"/>
<path d="M0 0 C0.99 0 1.98 0 3 0 C5 3 5 3 5 6 C4.01 6 3.02 6 2 6 C2 5.34 2 4.68 2 4 C1.34 4 0.68 4 0 4 C0 2.68 0 1.36 0 0 Z " fill="#F1E9E9" transform="translate(10,214)"/>
<path d="M0 0 C0.99 0 1.98 0 3 0 C3.33 1.98 3.66 3.96 4 6 C3.01 5.67 2.02 5.34 1 5 C1 4.34 1 3.68 1 3 C0.34 3 -0.32 3 -1 3 C-0.67 2.01 -0.34 1.02 0 0 Z " fill="#F1E3E5" transform="translate(69,266)"/>
<path d="M0 0 C0.66 0 1.32 0 2 0 C1.67 1.98 1.34 3.96 1 6 C-0.32 5.67 -1.64 5.34 -3 5 C-3 4.01 -3 3.02 -3 2 C-2.01 2 -1.02 2 0 2 C0 1.34 0 0.68 0 0 Z " fill="#E8DDDF" transform="translate(24,155)"/>
<path d="M0 0 C0 0.66 0 1.32 0 2 C-1.32 2 -2.64 2 -4 2 C-4 2.66 -4 3.32 -4 4 C-5.98 4 -7.96 4 -10 4 C-6.58908673 0.88145073 -4.68377325 -0.53528837 0 0 Z " fill="#BF7162" transform="translate(135,83)"/>
<path d="M0 0 C1.98 0 3.96 0 6 0 C6.33 0.99 6.66 1.98 7 3 C5.02 3 3.04 3 1 3 C0.67 2.01 0.34 1.02 0 0 Z " fill="#EFDBD8" transform="translate(104,243)"/>
<path d="M0 0 C0.66 0 1.32 0 2 0 C2 0.66 2 1.32 2 2 C3.32 2 4.64 2 6 2 C6 2.99 6 3.98 6 5 C4.68 5 3.36 5 2 5 C2 4.34 2 3.68 2 3 C1.34 3 0.68 3 0 3 C0 2.01 0 1.02 0 0 Z " fill="#FAE6E8" transform="translate(281,292)"/>
<path d="M0 0 C0.99 0 1.98 0 3 0 C3 0.99 3 1.98 3 3 C2.01 3 1.02 3 0 3 C0 3.66 0 4.32 0 5 C-0.99 5 -1.98 5 -3 5 C-3 4.01 -3 3.02 -3 2 C-2.01 2 -1.02 2 0 2 C0 1.34 0 0.68 0 0 Z " fill="#ECE1E3" transform="translate(52,134)"/>
<path d="M0 0 C0.99 0 1.98 0 3 0 C3 0.66 3 1.32 3 2 C3.66 2 4.32 2 5 2 C5 2.99 5 3.98 5 5 C4.01 5 3.02 5 2 5 C2 4.34 2 3.68 2 3 C1.34 3 0.68 3 0 3 C0 2.01 0 1.02 0 0 Z " fill="#EBDCDE" transform="translate(26,236)"/>
<path d="M0 0 C0.99 0 1.98 0 3 0 C3 0.99 3 1.98 3 3 C2.34 3 1.68 3 1 3 C1 3.66 1 4.32 1 5 C0.01 5 -0.98 5 -2 5 C-2 4.01 -2 3.02 -2 2 C-1.34 2 -0.68 2 0 2 C0 1.34 0 0.68 0 0 Z " fill="#E6D9DA" transform="translate(14,162)"/>
</svg>
